<?xml version="1.0" encoding="UTF-8" standalone="no"?>
<!-- Created with Inkscape (http://www.inkscape.org/) -->

<svg
   version="1.1"
   id="svg3173"
   width="880"
   height="880"
   viewBox="0 0 880 880"
   sodipodi:docname="office-plant-publicdomainvectors.org.svg"
   inkscape:version="1.2 (dc2aedaf03, 2022-05-15)"
   xmlns:inkscape="http://www.inkscape.org/namespaces/inkscape"
   xmlns:sodipodi="http://sodipodi.sourceforge.net/DTD/sodipodi-0.dtd"
   xmlns="http://www.w3.org/2000/svg"
   xmlns:svg="http://www.w3.org/2000/svg">
  <defs
     id="defs3177">
    <clipPath
       clipPathUnits="userSpaceOnUse"
       id="clipPath3189">
      <path
         d="M 0,660 H 660 V 0 H 0 Z"
         id="path3187" />
    </clipPath>
  </defs>
  <sodipodi:namedview
     id="namedview3175"
     pagecolor="#ffffff"
     bordercolor="#000000"
     borderopacity="0.25"
     inkscape:showpageshadow="2"
     inkscape:pageopacity="0.0"
     inkscape:pagecheckerboard="0"
     inkscape:deskcolor="#d1d1d1"
     showgrid="false"
     inkscape:zoom="0.95113636"
     inkscape:cx="440.52569"
     inkscape:cy="440.52569"
     inkscape:window-width="1920"
     inkscape:window-height="1017"
     inkscape:window-x="-8"
     inkscape:window-y="-8"
     inkscape:window-maximized="1"
     inkscape:current-layer="g3181">
    <inkscape:page
       x="0"
       y="0"
       id="page3179"
       width="880"
       height="880" />
  </sodipodi:namedview>
  <g
     id="g3181"
     inkscape:groupmode="layer"
     inkscape:label="Page 1"
     transform="matrix(1.3333333,0,0,-1.3333333,0,880)">
    <g
       id="g3183">
      <g
         id="g3185"
         clip-path="url(#clipPath3189)">
        <g
           id="g3191"
           transform="translate(348.1152,108.0771)">
          <path
             d="M 0,0 C 36.185,0 65.699,11.217 65.699,24.969 65.699,38.72 36.185,49.938 0,49.938 -36.188,49.938 -65.702,38.72 -65.702,24.969 -65.702,11.217 -36.188,0 0,0"
             style="fill:#e6e6e6;fill-opacity:1;fill-rule:evenodd;stroke:none"
             id="path3193" />
        </g>
        <g
           id="g3195"
           transform="translate(382.1777,137.334)">
          <path
             d="m 0,0 c 0,-12.944 -21.126,-23.438 -47.186,-23.438 -26.061,0 -47.185,10.494 -47.185,23.438 l -8.939,91.821 H 8.938 Z"
             style="fill:#9ca7b3;fill-opacity:1;fill-rule:evenodd;stroke:none"
             id="path3197" />
        </g>
        <g
           id="g3199"
           transform="translate(382.1777,137.334)">
          <path
             d="m 0,0 c 0,-12.944 -21.126,-23.438 -47.186,-23.438 -4.463,0 -8.782,0.308 -12.873,0.882 9.652,-0.576 16.877,1.611 22.808,5.275 -14.744,-0.138 -29.493,-0.341 -44.11,8.255 L 1.571,16.152 Z"
             style="fill:#8995a1;fill-opacity:1;fill-rule:evenodd;stroke:none"
             id="path3201" />
        </g>
        <g
           id="g3203"
           transform="translate(391.2715,150.5186)">
          <path
             d="m 0,0 c 0,-15.438 -25.197,-27.954 -56.279,-27.954 -31.082,0 -56.282,12.516 -56.282,27.954 l -10.662,109.522 H 10.66 Z"
             style="fill:#cfdae6;fill-opacity:1;fill-rule:evenodd;stroke:none"
             id="path3205" />
        </g>
        <g
           id="g3207"
           transform="translate(391.2715,150.5186)">
          <path
             d="m 0,0 c 0,-15.438 -25.197,-27.954 -56.279,-27.954 -13.425,0 -25.746,2.333 -35.418,6.23 2.909,-0.527 5.743,-0.92 8.504,-1.179 15.1,-1.427 28.644,3.157 39.777,13.459 11.13,10.302 16.747,23.452 16.493,38.618 -0.034,2.044 -0.07,4.088 -0.103,6.133 -0.307,18.326 -14.144,33.335 -32.383,35.126 -17.31,1.703 -33.174,7.942 -47.529,18.925 l 31.924,20.164 H 10.66 Z"
             style="fill:#bfcddb;fill-opacity:1;fill-rule:evenodd;stroke:none"
             id="path3209" />
        </g>
        <g
           id="g3211"
           transform="translate(334.9922,228.3838)">
          <path
             d="M 0,0 C 36.913,0 67.021,14.956 67.021,33.291 67.021,51.627 36.913,66.582 0,66.582 -36.916,66.582 -67.021,51.627 -67.021,33.291 -67.021,14.956 -36.916,0 0,0"
             style="fill:#eaf0f7;fill-opacity:1;fill-rule:evenodd;stroke:none"
             id="path3213" />
        </g>
        <g
           id="g3215"
           transform="translate(334.9922,234.8008)">
          <path
             d="M 0,0 C 31.243,0 56.728,12.072 56.728,26.874 56.728,41.677 31.243,53.75 0,53.75 -31.246,53.75 -56.729,41.677 -56.729,26.874 -56.729,12.072 -31.246,0 0,0"
             style="fill:#c0cddb;fill-opacity:1;fill-rule:evenodd;stroke:none"
             id="path3217" />
        </g>
        <g
           id="g3219"
           transform="translate(391.2393,258.1689)">
          <path
             d="m 0,0 c -3.626,-13.186 -27.426,-23.37 -56.247,-23.37 -28.824,0 -52.624,10.184 -56.25,23.37 3.626,13.188 27.426,23.371 56.25,23.371 C -27.426,23.371 -3.626,13.188 0,0"
             style="fill:#4f2d0a;fill-opacity:1;fill-rule:evenodd;stroke:none"
             id="path3221" />
        </g>
        <g
           id="g3223"
           transform="translate(391.2393,258.1689)">
          <path
             d="m 0,0 c -3.626,-13.186 -27.426,-23.37 -56.247,-23.37 -15.517,0 -29.577,2.952 -39.817,7.735 -1.679,2.538 -2.586,5.241 -2.586,8.042 0,14.844 25.399,26.876 56.73,26.876 7.703,0 15.048,-0.729 21.747,-2.048 C -9.357,13.008 -1.902,6.917 0,0"
             style="fill:#663c12;fill-opacity:1;fill-rule:evenodd;stroke:none"
             id="path3225" />
        </g>
        <g
           id="g3227"
           transform="translate(421.3057,463.498)">
          <path
             d="M 0,0 C 11.158,12.892 22.198,15.572 31.953,10.535 31.466,9.171 30.935,7.866 30.368,6.615 L 30.355,6.621 C 28.41,2.342 26.017,-1.35 23.37,-4.712 c -2.854,-3.631 -2.225,-8.887 1.406,-11.741 3.63,-2.855 8.887,-2.224 11.741,1.406 3.143,3.994 6.015,8.355 8.421,13.336 5.161,-7.419 9.595,-17.397 13.02,-29.329 -0.177,-0.282 -0.37,-0.547 -0.583,-0.795 -1.029,-1.197 -2.641,-2.165 -4.876,-2.884 -4.388,-1.408 -6.804,-6.11 -5.396,-10.499 1.409,-4.387 6.11,-6.803 10.498,-5.395 1.582,0.509 3.061,1.104 4.44,1.786 1.319,-7.392 2.298,-15.28 2.898,-23.564 -1.1,0.089 -2.259,0.249 -3.462,0.456 -4.552,0.777 -8.873,-2.285 -9.648,-6.836 -0.776,-4.552 2.283,-8.872 6.835,-9.649 2.347,-0.404 4.668,-0.677 6.952,-0.747 0.229,-25.604 -3.064,-54.058 -11.03,-82.96 -4.119,12.99 -11.211,26.569 -19.252,40.339 2.72,1.83 5.16,4.184 7.286,7.125 2.71,3.739 1.874,8.967 -1.864,11.676 -3.738,2.71 -8.967,1.874 -11.676,-1.865 -0.725,-1.003 -1.52,-1.847 -2.381,-2.54 -4.964,8.128 -10.016,16.278 -14.747,24.362 0.272,0.132 0.544,0.267 0.814,0.407 6.307,3.239 12.167,7.884 17.549,14.007 3.053,3.469 2.716,8.755 -0.752,11.806 -3.467,3.053 -8.753,2.716 -11.805,-0.751 -4.046,-4.601 -8.244,-7.986 -12.579,-10.213 -0.456,-0.234 -0.912,-0.455 -1.372,-0.665 -2.089,3.977 -4.035,7.925 -5.792,11.836 1.74,0.748 3.433,1.583 5.071,2.527 7.224,4.161 13.074,10.188 16.822,19.058 1.788,4.244 -0.205,9.137 -4.448,10.924 -4.245,1.789 -9.138,-0.204 -10.925,-4.447 -2.183,-5.168 -5.574,-8.67 -9.757,-11.079 -0.862,-0.498 -1.767,-0.955 -2.712,-1.375 C -13.58,-32.352 -12.944,-14.955 0,0 m -134.609,-34.977 c 16.891,-11.047 14.761,-24.344 5.215,-38.518 -0.507,1.85 -0.84,3.829 -0.978,5.952 -0.29,4.607 -4.26,8.107 -8.864,7.816 -4.605,-0.289 -8.105,-4.256 -7.816,-8.862 0.362,-5.602 1.636,-10.639 3.64,-15.219 0.662,-1.512 1.396,-2.965 2.197,-4.362 -2.344,-2.589 -4.796,-5.189 -7.293,-7.796 -2.126,3.218 -3.799,6.789 -4.87,10.827 -1.174,4.461 -5.743,7.126 -10.204,5.953 -4.462,-1.174 -7.126,-5.744 -5.952,-10.206 1.859,-7.018 4.949,-13.041 8.904,-18.352 l 0.335,-0.445 c -9.307,-9.774 -17.825,-19.454 -22.137,-28.637 -9.532,17.913 -13.921,35.537 -14.376,51.233 0.339,0.057 0.678,0.123 1.017,0.194 4.225,0.884 8.268,2.778 12.2,5.248 3.9,2.457 5.071,7.61 2.616,11.512 -2.458,3.901 -7.611,5.072 -11.512,2.617 -1.036,-0.653 -2.055,-1.229 -3.042,-1.709 2.112,11.698 6.666,21.565 12.955,28.617 2.105,-3.338 4.994,-6.116 8.825,-8.217 4.046,-2.223 9.126,-0.744 11.349,3.302 2.221,4.046 0.743,9.128 -3.303,11.349 -1.505,0.827 -2.54,1.934 -3.202,3.264 9.97,3.84 21.837,2.587 34.296,-5.561 m -47.2,116.11 c -13.679,16.196 -27.51,16.279 -39.069,5.18 2.012,-0.778 4.311,-1.253 7.007,-1.309 4.606,-0.09 8.268,-3.898 8.179,-8.504 -0.091,-4.605 -3.9,-8.266 -8.504,-8.176 -6.701,0.142 -12.159,1.78 -16.843,4.343 -3.028,-5.407 -5.773,-11.713 -8.162,-18.791 1.031,0.058 2.114,0.173 3.249,0.343 4.57,0.687 8.83,-2.46 9.517,-7.031 0.687,-4.569 -2.461,-8.83 -7.032,-9.517 -3.645,-0.549 -7.098,-0.697 -10.351,-0.431 -1.756,-7.772 -3.139,-16.151 -4.091,-25.013 1.286,0.068 2.604,0.187 3.959,0.362 4.569,0.577 8.743,-2.658 9.32,-7.228 0.578,-4.57 -2.657,-8.744 -7.227,-9.321 -2.523,-0.325 -4.951,-0.504 -7.3,-0.557 -1.131,-26.5 1.469,-56.245 9.169,-86.477 3.622,10.716 9.272,21.831 15.813,33.122 -1.155,1.678 -2.229,3.44 -3.197,5.319 -2.944,5.713 -4.785,12.268 -4.747,20.259 0.018,4.606 3.766,8.325 8.371,8.307 4.606,-0.018 8.325,-3.767 8.307,-8.373 -0.014,-3.329 0.487,-6.245 1.36,-8.862 6.465,10.33 13.203,20.713 19.377,30.985 -1.003,0.426 -1.994,0.86 -2.973,1.303 -6.904,3.124 -13.324,6.711 -19.392,10.631 -3.884,2.493 -5.012,7.662 -2.518,11.545 2.491,3.884 7.662,5.012 11.544,2.519 5.417,-3.497 11.124,-6.691 17.234,-9.455 1.47,-0.665 2.96,-1.306 4.471,-1.92 4.227,7.874 7.869,15.631 10.532,23.196 -2.751,0.407 -5.493,1.093 -8.221,2.064 -5.687,2.024 -11.277,5.305 -16.762,9.922 -3.523,2.962 -3.975,8.22 -1.013,11.741 2.962,3.523 8.22,3.976 11.74,1.014 3.864,-3.252 7.731,-5.538 11.593,-6.914 2.245,-0.798 4.505,-1.283 6.78,-1.466 1.858,13.43 -0.664,25.996 -10.12,37.19 m 139.08,38.105 c 16.765,11.518 33.364,9.27 45.722,-1.699 -1.714,0.051 -3.454,0.217 -5.216,0.48 -4.57,0.668 -8.815,-2.495 -9.483,-7.065 -0.67,-4.569 2.493,-8.816 7.063,-9.484 6.581,-0.985 13.078,-0.966 19.456,0.437 l 0.018,0.005 c 4.038,-7.839 6.825,-17.169 7.93,-27.488 -1.572,0.842 -3.073,1.811 -4.518,2.839 -3.756,2.675 -8.971,1.795 -11.642,-1.962 -2.674,-3.757 -1.795,-8.97 1.96,-11.644 3.978,-2.83 8.379,-5.39 13.483,-7.055 0.305,-0.1 0.611,-0.196 0.922,-0.289 C 21.987,43.953 18.719,30.751 12.59,17.389 6.227,29.105 -7.04,41.63 -20.062,54.128 c 0.71,0.717 1.391,1.456 2.037,2.222 3.118,3.692 5.438,7.92 6.524,12.968 0.956,4.515 -1.929,8.952 -6.445,9.909 -4.514,0.957 -8.951,-1.928 -9.909,-6.443 -0.45,-2.096 -1.496,-3.948 -2.924,-5.641 -0.38,-0.451 -0.786,-0.89 -1.212,-1.322 -3.359,3.421 -6.528,6.819 -9.358,10.178 0.74,0.471 1.458,0.969 2.159,1.491 4.594,3.436 8.287,7.928 11.05,13.495 2.042,4.136 0.343,9.145 -3.793,11.185 -4.135,2.041 -9.145,0.343 -11.184,-3.794 -1.549,-3.118 -3.579,-5.606 -6.08,-7.476 -0.52,-0.387 -1.06,-0.751 -1.622,-1.089 -5.314,10.748 -4.499,20.777 8.09,29.427"
             style="fill:#5f992c;fill-opacity:1;fill-rule:evenodd;stroke:none"
             id="path3229" />
        </g>
        <g
           id="g3231"
           transform="translate(361.3564,260.627)">
          <path
             d="m 0,0 c -0.036,-4.569 8.805,-4.219 8.744,0 0.704,58.557 4.034,88.34 13.787,139.736 3.703,19.512 8.318,35.812 14.045,46.84 4.998,9.622 10.955,16.524 17.278,15.563 10.426,-1.585 24.704,-15.594 30.183,-23.743 9.86,-14.666 20.313,-41.736 24.283,-77.67 -2.755,35.502 -6.516,60.303 -20.42,80.983 -6.625,9.853 -20.031,25.433 -32.981,27.401 C 44.233,210.737 35.65,203.742 28.801,190.553 22.68,178.772 17.805,161.643 13.94,141.279 4.074,89.286 0.707,58.947 0,0 m -27.667,-17.652 c -0.248,81.687 0.617,141.993 6.982,221.733 6.691,83.816 21.035,138.211 47.403,121.81 24.532,-15.258 35.186,-44.747 37.643,-68.162 -5.798,25.016 -20.967,50.703 -43.05,64.438 -17.113,10.644 -27.225,-43.095 -33.258,-118.669 -6.359,-79.646 -7.222,-139.634 -6.974,-221.049 0.144,-3.713 -8.813,-4.057 -8.746,-0.101 m -27.661,17.446 c -2.757,73.424 -8.904,113.45 -19.328,178.084 -2.499,-1.73 -5.168,-4.152 -8.027,-7.336 -25.769,-21.956 -34.244,-58.699 -37.989,-72.912 2.292,31.185 8.984,53.615 31.502,78.707 4.611,5.14 8.872,9 12.811,11.705 -1.689,9.706 -3.48,18.925 -5.38,27.549 -4.988,22.644 -10.693,41.092 -17.159,53.341 -5.678,10.753 -11.619,16.308 -17.75,14.975 -1.374,-0.299 -2.827,-0.931 -4.355,-1.911 -15.454,-9.921 -29.319,-22.663 -37.514,-43.667 -11.545,-29.593 -16.276,-58.912 -19.924,-90.532 1.828,39.563 5.983,70.06 14.689,92.381 8.931,22.885 20.978,38.203 38.096,49.191 2.431,1.56 4.848,2.588 7.246,3.11 10.609,2.307 19.634,-4.937 27.269,-19.397 6.846,-12.966 12.809,-32.153 17.959,-55.537 1.76,-7.982 3.425,-16.469 5.004,-25.374 19.357,5.863 29.138,-21.949 33.568,-64.474 5.258,-50.463 2.72,-79.791 0.399,-136.749 -0.2,-2.978 -8.92,-3.133 -8.743,0.239 2.312,56.627 4.833,85.525 -0.376,135.515 -3.413,32.776 -10.233,55.273 -22.983,54.507 10.67,-65.314 16.939,-106.592 19.733,-181.003 0.083,-2.112 -8.588,-2.633 -8.748,-0.412"
             style="fill:#44751a;fill-opacity:1;fill-rule:evenodd;stroke:none"
             id="path3233" />
        </g>
      </g>
    </g>
  </g>
</svg>
